<svg xmlns="http://www.w3.org/2000/svg" viewBox="0 0 1162.73 705.6"><defs><style>.cls-1{fill:#af2833;}.cls-2{opacity:0.05;}.cls-3{opacity:0.11;}.cls-4{fill:#cc1b28;}.cls-5{fill:#242435;}.cls-6{fill:#333;}.cls-7{fill:#1a1a1a;}</style></defs><title>Asset 2</title><g id="Layer_2" data-name="Layer 2"><g id="Layer_1-2" data-name="Layer 1"><g id="Posts"><rect class="cls-1" x="761.69" y="87.66" width="55.62" height="617.94"/><rect class="cls-1" x="344.57" y="87.66" width="55.62" height="617.94"/><rect class="cls-2" x="344.57" y="87.66" width="27.89" height="617.94"/><rect class="cls-2" x="761.99" y="87.66" width="27.89" height="617.94"/></g><g id="bottom-shaddow"><path class="cls-3" d="M344.57,226.7h55.62v19.09c-22.16-.37-40.84-.83-55.62-1.43Z"/><path class="cls-3" d="M817.31,226.7v17.8q-28.44.41-55.62.74V226.7Z"/></g><g id="top-shadow"><path class="cls-3" d="M344.57,87.66h55.62v16c-19.7-.14-38.29-.28-55.62-.47Z"/><path class="cls-3" d="M817.31,87.66v14.41q-28.3.34-55.62.56v-15Z"/></g><path id="Lower-bar" class="cls-4" d="M293.61,228.93c55.43,4.66,287.18,5.8,602.47,0l.41,0a133.37,133.37,0,0,0,57.27-19.34,145.63,145.63,0,0,0,37-32.86c3-3.77.53-9.67-4-9.67H176c-5,0-7.27,6.74-3.5,10.27a182.91,182.91,0,0,0,48.28,32.28A209.14,209.14,0,0,0,293.61,228.93Z"/><path id="Upper-bar" class="cls-4" d="M194.14,85.25c74.17,5.59,383,7,803.72.12l20.56-1.7a193.3,193.3,0,0,0,64.08-21.83,190.47,190.47,0,0,0,49.85-39.74,7.05,7.05,0,0,0-5.45-11.7H35.82a7,7,0,0,0-4.71,12.42c14.21,12,35.35,26.65,65,39A306.74,306.74,0,0,0,194.14,85.25Z"/><path class="cls-5" d="M1160.86,13.43l-.25.3c-1.15,1.41-2.34,2.77-3.56,4.1-16.71,18.22-38.42,28.22-60.9,28.22H68.93A79,79,0,0,1,21.46,29.87c-5.52-4.13-10.45-8.18-14.85-12q-2.06-1.81-4-3.57C-2.68,9.36.58,0,7.6,0H1155.12C1161.62,0,1165.14,8.2,1160.86,13.43Z"/><path class="cls-3" d="M1107.71,45.16a190.33,190.33,0,0,1-25.21,16.68c-1.27.7-2.53,1.38-3.79,2H101c-1.66-.67-3.32-1.34-4.93-2a272.22,272.22,0,0,1-32.16-16c1.66.1,3.33.16,5,.16H1096.15A75.69,75.69,0,0,0,1107.71,45.16Z"/><rect class="cls-6" x="539.4" y="54.05" width="92.44" height="138.49"/><path class="cls-7" d="M623.84,62.05V184.54H547.4V62.05h76.44m16-16H531.4V200.54H639.84V46.05Z"/></g></g></svg>